<?xml version="1.0" encoding="utf-8"?>
<!-- Generator: Adobe Illustrator 17.0.0, SVG Export Plug-In . SVG Version: 6.00 Build 0)  -->
<svg version="1.2" baseProfile="tiny-ps" id="Layer_1" xmlns="http://www.w3.org/2000/svg" xmlns:xlink="http://www.w3.org/1999/xlink" viewBox="0 0 150 150" xml:space="preserve">
	<title>Edoardo Poggi</title>
<g>
	<path fill="#930748" d="M-1.131,150.027c0-48.888,0-97.777,0-146.665c0-1.184,0.074-2.375-0.024-3.55
		c-0.074-0.884,0.162-1.195,1.041-1.027c0.326,0.062,0.675,0.01,1.013,0.01c49.396,0,98.792,0.013,148.187-0.051
		c1.76-0.002,2.084,0.322,2.081,2.081c-0.064,49.734-0.051,99.468-0.051,149.202C100.367,150.027,49.618,150.027-1.131,150.027z
		 M42.513,74.998c0,15.729-0.005,31.458,0.005,47.187c0.002,2.423,0.034,2.461,2.391,2.462c21.141,0.01,42.282,0.006,63.423,0.006
		c0.338,0,0.758,0.127,0.997-0.027c0.451-0.291,1.133-0.74,1.138-1.13c0.07-6.595,0.032-13.192,0.068-19.787
		c0.006-1.107-0.406-1.464-1.468-1.401c-1.18,0.07-2.367,0.016-3.551,0.016c-11.67,0-23.34,0.006-35.009-0.005
		c-2.582-0.002-2.602-0.03-2.614-2.748c-0.018-4.059-0.021-8.118,0.002-12.177c0.013-2.293,0.042-2.318,2.532-2.321
		c10.317-0.011,20.634-0.027,30.95,0.022c1.398,0.007,2.106-0.137,2.076-1.841c-0.105-6.087-0.095-12.177-0.005-18.265
		c0.024-1.654-0.141-2.361-2.144-2.314c-6.93,0.164-13.867,0.111-20.801,0.045c-4.173-0.039-8.344-0.254-12.516-0.39
		c-0.033-4.384-0.021-8.768-0.127-13.15c-0.032-1.331,0.388-1.729,1.704-1.694c3.211,0.085,6.426,0.028,9.64,0.028
		c9.471,0,18.943-0.038,28.413,0.037c1.597,0.013,1.94-0.516,1.917-2.001c-0.082-5.411-0.015-10.824-0.038-16.236
		c-0.017-3.893-0.247-4.121-4.368-4.124c-19.957-0.013-39.914-0.01-59.871-0.001c-2.709,0.001-2.738,0.032-2.739,2.622
		C42.509,43.54,42.513,59.269,42.513,74.998z"/>
	<path fill="#FDFCFD" d="M-1.131,150.027c50.749,0,101.498,0,152.247,0c0,0.338,0.024,0.97-0.003,0.972
		c-0.672,0.055-1.35,0.043-2.026,0.043c-49.396,0-98.792,0.005-148.187-0.052C0.262,150.989-1.286,152.028-1.131,150.027z"/>
	<path fill="#FDFCFD" d="M42.513,74.998c0-15.729-0.005-31.458,0.005-47.187c0.002-2.591,0.03-2.621,2.739-2.622
		c19.957-0.009,39.914-0.012,59.871,0.001c4.121,0.003,4.351,0.23,4.368,4.124c0.023,5.412-0.043,10.825,0.038,16.236
		c0.022,1.486-0.32,2.014-1.917,2.001c-9.471-0.075-18.942-0.037-28.413-0.037c-3.213,0-6.428,0.057-9.64-0.028
		c-1.315-0.035-1.736,0.363-1.704,1.694c0.106,4.382,0.094,8.767,0.127,13.15c4.172,0.136,8.343,0.351,12.516,0.39
		c6.934,0.065,13.871,0.118,20.801-0.045c2.003-0.047,2.168,0.66,2.144,2.314c-0.09,6.087-0.099,12.178,0.005,18.265
		c0.029,1.705-0.678,1.848-2.076,1.841c-10.317-0.05-20.634-0.033-30.95-0.022c-2.49,0.003-2.519,0.028-2.532,2.321
		c-0.023,4.059-0.02,8.118-0.002,12.177c0.012,2.718,0.032,2.745,2.614,2.748c11.67,0.011,23.34,0.005,35.009,0.005
		c1.184,0,2.371,0.054,3.551-0.016c1.062-0.063,1.474,0.294,1.468,1.401c-0.036,6.596,0.002,13.192-0.068,19.787
		c-0.004,0.39-0.687,0.839-1.138,1.13c-0.239,0.154-0.659,0.027-0.997,0.027c-21.141,0-42.282,0.004-63.423-0.006
		c-2.356-0.001-2.389-0.039-2.391-2.462C42.508,106.456,42.513,90.727,42.513,74.998z"/>
</g>
</svg>
